<svg width="16" height="18" viewBox="0 0 16 18" fill="none" xmlns="http://www.w3.org/2000/svg">
<path d="M10.9624 1.53484C10.9624 1.2007 10.6915 0.929836 10.3574 0.929836C10.0233 0.929836 9.7524 1.2007 9.7524 1.53484V2.50145H6.82127C6.48714 2.50145 6.21627 2.77232 6.21627 3.10645C6.21627 3.44058 6.48714 3.71145 6.82127 3.71145H9.7524V4.67806C9.7524 5.0122 10.0233 5.28306 10.3574 5.28306C10.6915 5.28306 10.9624 5.0122 10.9624 4.67806V1.53484Z" fill="#201E1C"/>
<path fill-rule="evenodd" clip-rule="evenodd" d="M14.4673 7.21629H1.53272V4.67811C1.53272 4.14427 1.96548 3.7115 2.49933 3.7115H3.46593V4.67806C3.46593 5.0122 3.7368 5.28306 4.07093 5.28306C4.40506 5.28306 4.67593 5.0122 4.67593 4.67806V3.11034L4.67594 3.1065L4.67593 3.10266V1.53484C4.67593 1.2007 4.40506 0.929836 4.07093 0.929836C3.7368 0.929836 3.46593 1.2007 3.46593 1.53484V2.5015H2.49933C1.29722 2.5015 0.322716 3.476 0.322716 4.67811V14.8936C0.322716 16.0957 1.29722 17.0702 2.49933 17.0702H13.5006C14.7028 17.0702 15.6772 16.0957 15.6772 14.8936V7.82894C15.6773 7.82641 15.6773 7.82387 15.6773 7.82134V4.67811C15.6773 3.47601 14.7028 2.5015 13.5007 2.5015H13.1078C12.7736 2.5015 12.5028 2.77237 12.5028 3.1065C12.5028 3.44063 12.7736 3.7115 13.1078 3.7115H13.5007C14.0345 3.7115 14.4673 4.14426 14.4673 4.67811V7.21629ZM1.53272 14.8936V8.42629H14.4672V14.8936C14.4672 15.4274 14.0345 15.8602 13.5006 15.8602H2.49933C1.96548 15.8602 1.53272 15.4274 1.53272 14.8936Z" fill="#201E1C"/>
</svg>
