<svg width="18" height="16" viewBox="0 0 18 16" fill="none" xmlns="http://www.w3.org/2000/svg">
<path fill-rule="evenodd" clip-rule="evenodd" d="M17.0425 8.00001C17.0425 10.1996 15.2594 11.9828 13.0597 11.9828L10.1569 11.9828C9.82279 11.9828 9.55193 11.7119 9.55193 11.3778C9.55193 11.0437 9.82279 10.7728 10.1569 10.7728L13.0597 10.7728C14.5911 10.7728 15.8325 9.53137 15.8325 8.00001C15.8325 6.46864 14.5911 5.22723 13.0597 5.22723L10.1569 5.22723C9.82279 5.22723 9.55193 4.95636 9.55193 4.62223C9.55193 4.28809 9.82279 4.01723 10.1569 4.01723H13.0597C15.2594 4.01723 17.0425 5.80038 17.0425 8.00001ZM0.957474 8.00001C0.957474 5.80038 2.74062 4.01723 4.94025 4.01723H7.84307C8.17721 4.01723 8.44807 4.2881 8.44807 4.62223C8.44807 4.95636 8.17721 5.22723 7.84307 5.22723H4.94025C3.40889 5.22723 2.16747 6.46865 2.16747 8.00001C2.16747 9.53137 3.40889 10.7728 4.94025 10.7728H7.84307C8.17721 10.7728 8.44807 11.0437 8.44807 11.3778C8.44807 11.7119 8.17721 11.9828 7.84307 11.9828H4.94025C2.74063 11.9828 0.957474 10.1996 0.957474 8.00001ZM5.19863 7.39501C4.8645 7.39501 4.59363 7.66587 4.59363 8.00001C4.59363 8.33414 4.8645 8.60501 5.19863 8.60501H13.132C13.4662 8.60501 13.737 8.33414 13.737 8.00001C13.737 7.66587 13.4662 7.39501 13.132 7.39501H5.19863Z" fill="#201E1C"/>
</svg>
