<svg width="18" height="16" viewBox="0 0 18 16" fill="none" xmlns="http://www.w3.org/2000/svg">
<path id="vector" fill-rule="evenodd" clip-rule="evenodd" d="M1.23478 0.705558C1.006 0.609229 0.741586 0.662427 0.567859 0.83974C0.394131 1.01705 0.346345 1.28249 0.447327 1.50926L3.33773 7.99999L0.447327 14.4907C0.346345 14.7175 0.394131 14.9829 0.567859 15.1602C0.741586 15.3376 1.006 15.3908 1.23478 15.2944L17.2226 8.5627C17.2715 8.54334 17.3173 8.51779 17.359 8.48702C17.3962 8.45961 17.4299 8.42819 17.4595 8.39353C17.5502 8.28773 17.605 8.15025 17.605 7.99996C17.605 7.7437 17.4457 7.52464 17.2207 7.43647L1.23478 0.705558ZM14.004 7.39496L2.17489 2.41428L4.39286 7.39496H14.004ZM4.39288 8.60496L2.17489 13.5857L14.0041 8.60496H4.39288Z" fill="#201E1C"/>
</svg>
